<?xml version="1.0" encoding="UTF-8" standalone="no"?>
<!-- Created with Inkscape (http://www.inkscape.org/) -->

<svg
   xmlns:dc="http://purl.org/dc/elements/1.1/"
   xmlns:cc="http://creativecommons.org/ns#"
   xmlns:rdf="http://www.w3.org/1999/02/22-rdf-syntax-ns#"
   xmlns:svg="http://www.w3.org/2000/svg"
   xmlns="http://www.w3.org/2000/svg"
   xmlns:sodipodi="http://sodipodi.sourceforge.net/DTD/sodipodi-0.dtd"
   xmlns:inkscape="http://www.inkscape.org/namespaces/inkscape"
   width="96"
   height="96"
   id="svg6517"
   version="1.1"
   inkscape:version="0.91+devel r"
   sodipodi:docname="nagios01.svg"
   viewBox="0 0 96 96">
  <defs
     id="defs6519">
    <filter
       style="color-interpolation-filters:sRGB"
       inkscape:label="Inner Shadow"
       id="filter1121">
      <feFlood
         flood-opacity="0.59999999999999998"
         flood-color="rgb(0,0,0)"
         result="flood"
         id="feFlood1123" />
      <feComposite
         in="flood"
         in2="SourceGraphic"
         operator="out"
         result="composite1"
         id="feComposite1125" />
      <feGaussianBlur
         in="composite1"
         stdDeviation="1"
         result="blur"
         id="feGaussianBlur1127" />
      <feOffset
         dx="0"
         dy="2"
         result="offset"
         id="feOffset1129" />
      <feComposite
         in="offset"
         in2="SourceGraphic"
         operator="atop"
         result="composite2"
         id="feComposite1131" />
    </filter>
    <filter
       style="color-interpolation-filters:sRGB"
       inkscape:label="Drop Shadow"
       id="filter950">
      <feFlood
         flood-opacity="0.25"
         flood-color="rgb(0,0,0)"
         result="flood"
         id="feFlood952" />
      <feComposite
         in="flood"
         in2="SourceGraphic"
         operator="in"
         result="composite1"
         id="feComposite954" />
      <feGaussianBlur
         in="composite1"
         stdDeviation="1"
         result="blur"
         id="feGaussianBlur956" />
      <feOffset
         dx="0"
         dy="1"
         result="offset"
         id="feOffset958" />
      <feComposite
         in="SourceGraphic"
         in2="offset"
         operator="over"
         result="composite2"
         id="feComposite960" />
    </filter>
    <linearGradient
       id="Background">
      <stop
         id="stop4178"
         offset="0"
         style="stop-color:#22779e;stop-opacity:1" />
      <stop
         id="stop4180"
         offset="1"
         style="stop-color:#2991c0;stop-opacity:1" />
    </linearGradient>
    <clipPath
       clipPathUnits="userSpaceOnUse"
       id="clipPath873">
      <g
         transform="matrix(0,-0.66666667,0.66604479,0,-258.25992,677.00001)"
         id="g875"
         inkscape:label="Layer 1"
         style="display:inline;fill:#ff00ff;fill-opacity:1;stroke:none">
        <path
           style="display:inline;fill:#ff00ff;fill-opacity:1;stroke:none"
           d="M 46.702703,898.22775 H 97.297297 C 138.16216,898.22775 144,904.06497 144,944.92583 v 50.73846 c 0,40.86071 -5.83784,46.69791 -46.702703,46.69791 H 46.702703 C 5.8378378,1042.3622 0,1036.525 0,995.66429 v -50.73846 c 0,-40.86086 5.8378378,-46.69808 46.702703,-46.69808 z"
           id="path877"
           inkscape:connector-curvature="0"
           sodipodi:nodetypes="sssssssss" />
      </g>
    </clipPath>
    <style
       id="style867"
       type="text/css"><![CDATA[
    .fil0 {fill:#1F1A17}
   ]]></style>
  </defs>
  <sodipodi:namedview
     id="base"
     pagecolor="#ffffff"
     bordercolor="#666666"
     borderopacity="1.0"
     inkscape:pageopacity="0.0"
     inkscape:pageshadow="2"
     inkscape:zoom="5.0931702"
     inkscape:cx="51.311597"
     inkscape:cy="9.1743059"
     inkscape:document-units="px"
     inkscape:current-layer="layer1"
     showgrid="false"
     fit-margin-top="0"
     fit-margin-left="0"
     fit-margin-right="0"
     fit-margin-bottom="0"
     inkscape:window-width="1920"
     inkscape:window-height="1029"
     inkscape:window-x="0"
     inkscape:window-y="24"
     inkscape:window-maximized="1"
     showborder="true"
     showguides="true"
     inkscape:guide-bbox="true"
     inkscape:showpageshadow="false"
     inkscape:snap-global="false"
     inkscape:snap-bbox="true"
     inkscape:bbox-paths="true"
     inkscape:bbox-nodes="true"
     inkscape:snap-bbox-edge-midpoints="true"
     inkscape:snap-bbox-midpoints="true"
     inkscape:object-paths="true"
     inkscape:snap-intersection-paths="true"
     inkscape:object-nodes="true"
     inkscape:snap-smooth-nodes="true"
     inkscape:snap-midpoints="true"
     inkscape:snap-object-midpoints="true"
     inkscape:snap-center="true"
     inkscape:snap-text-baseline="true">
    <inkscape:grid
       type="xygrid"
       id="grid821" />
    <sodipodi:guide
       orientation="1,0"
       position="16,48"
       id="guide823"
       inkscape:locked="false" />
    <sodipodi:guide
       orientation="0,1"
       position="64,80"
       id="guide825"
       inkscape:locked="false" />
    <sodipodi:guide
       orientation="1,0"
       position="80,40"
       id="guide827"
       inkscape:locked="false" />
    <sodipodi:guide
       orientation="0,1"
       position="64,16"
       id="guide829"
       inkscape:locked="false" />
  </sodipodi:namedview>
  <metadata
     id="metadata6522">
    <rdf:RDF>
      <cc:Work
         rdf:about="">
        <dc:format>image/svg+xml</dc:format>
        <dc:type
           rdf:resource="http://purl.org/dc/dcmitype/StillImage" />
        <dc:title></dc:title>
      </cc:Work>
    </rdf:RDF>
  </metadata>
  <g
     inkscape:label="BACKGROUND"
     inkscape:groupmode="layer"
     id="layer1"
     transform="translate(268,-635.29076)"
     style="display:inline">
    <path
       style="display:inline;fill:#383838;fill-opacity:1;stroke:none"
       d="M 48 0 A 48 48 0 0 0 0 48 A 48 48 0 0 0 48 96 A 48 48 0 0 0 96 48 A 48 48 0 0 0 48 0 z "
       transform="translate(-268,635.29076)"
       id="path6455" />
    <path
       style="opacity:1;fill:#ffffff;stroke-width:0.49836424"
       d="m -245.09662,711.72332 c 0.11462,-2.99034 3.05007,-3.91613 4.84239,-4.18797 1.71688,-0.26041 5.37891,0.68965 12.09436,0.58011 6.71546,-0.10955 12.86651,-0.84046 13.96291,-0.88947 1.9861,-0.0888 5.3861,0.76742 8.80105,1.10369 4.31039,0.42444 6.80977,-0.52091 9.2513,0.84518 1.61577,0.90407 1.08624,3.01777 -0.74659,4.38113 -1.33442,0.99261 -1.63017,1.00618 -10.21647,0.46871 -5.17466,-0.32392 -9.97919,-0.38052 -11.58328,-0.13645 -1.35912,0.2068 -6.41923,0.46913 -11.10369,0.29831 -2.63405,-0.096 -4.79303,-0.60312 -6.97952,-0.66401 -2.52649,-0.0704 -3.8034,0.41679 -4.70411,0.38205 -2.3943,-0.0924 -3.67838,-0.61513 -3.61835,-2.18128 z m 5.08818,-11.30155 c -2.22213,-1.35482 -2.60399,-2.66785 -2.60399,-8.95375 0,-1.80081 -0.61411,-3.70956 0,-5.40241 0.30925,-0.85248 1.16285,-1.39184 1.74428,-2.08776 1.99091,-2.38297 2.18499,-3.96166 0.73705,-5.99511 -2.15336,-3.02411 -2.55856,-5.26728 -2.5057,-13.87166 0.0276,-4.48536 0.36374,-8.50768 0.51938,-9.03208 0.39979,-1.34711 1.27377,-1.54835 3.07627,-1.29531 1.70445,0.23927 3.95595,-0.20898 5.39827,-0.90867 2.60236,-1.26243 3.2066,-0.51959 4.20906,0.37736 0.59637,0.5336 1.3041,1.99758 1.7922,3.12788 0.56626,1.31131 1.45544,2.99812 3.01987,3.48855 2.97891,0.93386 3.54465,3.48769 6.64802,8.00186 2.48359,3.61262 5.05929,7.14477 5.7238,7.84924 2.77866,2.94574 3.73548,0.83339 3.37029,-7.44054 -0.10452,-2.36805 -0.60796,-4.45632 -0.35748,-6.22263 0.44969,-3.17117 -0.064,-6.30696 1.06018,-8.13995 0.72523,-1.18253 2.25821,-0.84224 4.94907,-0.82731 5.87758,0.0326 7.51589,1.06692 8.04026,7.66048 0.17784,2.23625 -0.0448,5.06655 0.0935,8.77532 0.21258,5.69922 0.36565,9.89449 -0.19419,13.9542 -0.33257,2.4116 -0.23954,5.19203 0.11854,7.85689 0.65813,4.89781 0.10092,7.46463 -1.97891,9.11584 -1.22508,0.97261 -1.74021,1.04732 -5.2449,0.76061 -2.13752,-0.17486 -4.77629,-0.67399 -5.86393,-1.10918 -2.47417,-0.98996 -5.12777,-3.97168 -7.68278,-8.63275 -1.08686,-1.98272 -3.08563,-4.87223 -4.44173,-6.42113 -1.35609,-1.5489 -3.21923,-3.99357 -4.14032,-5.4326 -1.7631,-2.75454 -3.20325,-3.36232 -4.08098,-1.72228 -0.26319,0.49178 -0.61704,4.2482 -0.78633,8.3476 -0.0761,1.84209 0.29872,3.56974 0.0707,5.40334 -0.27023,2.17271 -1.51256,3.76156 -0.90944,4.81483 1.14113,1.99282 0.59074,2.41331 0.15055,3.26026 -0.85686,1.64863 -7.25181,2.33409 -9.93055,0.70086 z"
       id="path4279"
       inkscape:connector-curvature="0"
       sodipodi:nodetypes="sssssssssssssssssssssssssssssssssssssssssssssss" />
  </g>
</svg>
